ModelForces
version=1
nRows=4
nColumns=155
inDegrees=no

This file contains the forces exerted on a model during a simulation.

A force is a generalized force, meaning that it can be either a force (N) or a torque (Nm).

Units are S.I. units (second, meters, Newtons, ...)
Angles are in degrees.

endheader
time	glut_med1_r	glut_med2_r	glut_med3_r	glut_min1_r	glut_min2_r	glut_min3_r	semimem_r	semiten_r	bifemlh_r	bifemsh_r	sar_r	add_long_r	add_brev_r	add_mag1_r	add_mag2_r	add_mag3_r	tfl_r	pect_r	grac_r	glut_max1_r	glut_max2_r	glut_max3_r	iliacus_r	psoas_r	quad_fem_r	gem_r	peri_r	rect_fem_r	vas_med_r	vas_int_r	vas_lat_r	med_gas_r	lat_gas_r	soleus_r	tib_post_r	flex_dig_r	flex_hal_r	tib_ant_r	per_brev_r	per_long_r	per_tert_r	ext_dig_r	ext_hal_r	glut_med1_l	glut_med2_l	glut_med3_l	glut_min1_l	glut_min2_l	glut_min3_l	semimem_l	semiten_l	bifemlh_l	bifemsh_l	sar_l	add_long_l	add_brev_l	add_mag1_l	add_mag2_l	add_mag3_l	tfl_l	pect_l	grac_l	glut_max1_l	glut_max2_l	glut_max3_l	iliacus_l	psoas_l	quad_fem_l	gem_l	peri_l	rect_fem_l	vas_med_l	vas_int_l	vas_lat_l	med_gas_l	lat_gas_l	soleus_l	tib_post_l	flex_dig_l	flex_hal_l	tib_ant_l	per_brev_l	per_long_l	per_tert_l	ext_dig_l	ext_hal_l	ercspn_r	ercspn_l	intobl_r	intobl_l	extobl_r	extobl_l	femur_lat_meniscii_r.femur_lat_r.force.X	femur_lat_meniscii_r.femur_lat_r.force.Y	femur_lat_meniscii_r.femur_lat_r.force.Z	femur_lat_meniscii_r.femur_lat_r.torque.X	femur_lat_meniscii_r.femur_lat_r.torque.Y	femur_lat_meniscii_r.femur_lat_r.torque.Z	femur_lat_meniscii_r.meniscus_lat_r.force.X	femur_lat_meniscii_r.meniscus_lat_r.force.Y	femur_lat_meniscii_r.meniscus_lat_r.force.Z	femur_lat_meniscii_r.meniscus_lat_r.torque.X	femur_lat_meniscii_r.meniscus_lat_r.torque.Y	femur_lat_meniscii_r.meniscus_lat_r.torque.Z	femur_med_meniscii_r.femur_med_r.force.X	femur_med_meniscii_r.femur_med_r.force.Y	femur_med_meniscii_r.femur_med_r.force.Z	femur_med_meniscii_r.femur_med_r.torque.X	femur_med_meniscii_r.femur_med_r.torque.Y	femur_med_meniscii_r.femur_med_r.torque.Z	femur_med_meniscii_r.meniscus_med_r.force.X	femur_med_meniscii_r.meniscus_med_r.force.Y	femur_med_meniscii_r.meniscus_med_r.force.Z	femur_med_meniscii_r.meniscus_med_r.torque.X	femur_med_meniscii_r.meniscus_med_r.torque.Y	femur_med_meniscii_r.meniscus_med_r.torque.Z	femur_med_tibia_r.tibia_upper_r.force.X	femur_med_tibia_r.tibia_upper_r.force.Y	femur_med_tibia_r.tibia_upper_r.force.Z	femur_med_tibia_r.tibia_upper_r.torque.X	femur_med_tibia_r.tibia_upper_r.torque.Y	femur_med_tibia_r.tibia_upper_r.torque.Z	femur_med_tibia_r.femur_med_r.force.X	femur_med_tibia_r.femur_med_r.force.Y	femur_med_tibia_r.femur_med_r.force.Z	femur_med_tibia_r.femur_med_r.torque.X	femur_med_tibia_r.femur_med_r.torque.Y	femur_med_tibia_r.femur_med_r.torque.Z	femur_lat_tibia_r.tibia_upper_r.force.X	femur_lat_tibia_r.tibia_upper_r.force.Y	femur_lat_tibia_r.tibia_upper_r.force.Z	femur_lat_tibia_r.tibia_upper_r.torque.X	femur_lat_tibia_r.tibia_upper_r.torque.Y	femur_lat_tibia_r.tibia_upper_r.torque.Z	femur_lat_tibia_r.femur_lat_r.force.X	femur_lat_tibia_r.femur_lat_r.force.Y	femur_lat_tibia_r.femur_lat_r.force.Z	femur_lat_tibia_r.femur_lat_r.torque.X	femur_lat_tibia_r.femur_lat_r.torque.Y	femur_lat_tibia_r.femur_lat_r.torque.Z	aACL_R	pACL_R	aPCL_R	pPCL_R	aMCL_R	mMCL_R	pMCL_R	aLCL_R	mLCL_R	pLCL_R	aPCL_L	pPCL_L	aMCL_L	aLCL_L
      0.08001621	      0.00000000	     13.76276935	     14.50667775	      6.32463417	      7.20134546	      6.94170718	      4.87719898	    235.50817992	    303.19841595	    422.78587643	    139.76394751	     13.97295580	      9.77260231	      0.00000000	      0.00000000	     10.36456560	      4.77427856	      0.00000000	    121.85399696	      8.73275912	     13.71446602	     10.40307422	     38.03854530	     30.47458212	      0.00000000	      5.35095994	      0.00000000	     45.21169984	      0.00000000	      0.00000000	      0.00000000	     40.97694850	     22.49160432	      0.00000000	     26.36272869	     12.04914705	      9.92054752	     35.35916690	      2.42550432	     10.21692180	      5.50758771	     19.49852980	      6.19303507	      0.00000000	     13.76276935	     14.50667775	      6.32463417	      7.20134546	      6.94170718	      0.00000000	     10.62208430	     11.25591223	     17.49929392	      3.60062186	     13.97295580	      9.77260231	      0.00000000	      0.00000000	     10.36456560	      7.92104393	      0.00000000	      3.74781533	      8.73275912	     13.71446602	     10.40307422	     38.03854530	     30.47458212	      0.00000000	      5.35095994	      0.00000000	     27.25066960	      0.00000000	      0.00000000	      0.00000000	      0.00000000	      0.00000000	     44.61280079	     59.74690879	     10.97192183	      9.94456027	     13.27467384	     10.19712872	     22.33194498	      4.66354909	      7.35697934	      2.26339345	     59.59389169	     59.59389169	     22.91404739	     22.91404739	     39.53243062	     39.53243062	     62.13577873	    301.71283732	     24.05099407	    -17.12599316	      1.50307550	     25.73821196	    -62.13577873	   -301.71283732	    -24.05099407	      8.92538437	     -1.91658200	      0.63539367	     36.96388656	    155.39964047	      3.20619630	      1.91216374	     -0.71509013	     14.78910830	    -36.96388656	   -155.39964047	     -3.20619630	     -2.61783839	      0.56346640	      0.69551763	    -19.78926093	   -534.27701246	     60.04089437	    -11.11956942	      0.69743506	      2.93045547	     19.78926093	    534.27701246	    -60.04089437	     35.92343813	     -0.25364839	      9.19386837	      3.56630274	   -289.28372510	    -58.90670827	      9.64128204	     -0.28016367	      1.97834020	     -3.56630274	    289.28372510	     58.90670827	    -31.23957977	     -0.20856627	     -0.88584073	     66.65297251	     46.76492301	      0.00000000	      0.00000000	      0.00000000	     -4.41906150	    -26.01168968	      0.00000000	      0.00000000	      0.00000000	      0.00000000	      0.00000000	      0.00000001	      0.00000000
      0.08099274	      0.00000000	     13.68186346	     14.45843198	      6.27668123	      7.14830883	      6.99267518	     12.89188455	    234.97026036	    300.58232395	    420.61993142	    139.71797315	     13.86240146	      9.69913644	      0.00000000	      0.00000000	     10.29827468	      4.78237374	      0.00000000	    121.70355470	      8.70074300	     13.61315785	     10.32148191	     37.83192705	     30.23989773	      0.00000000	      5.32046675	      0.00000000	     45.13947890	      0.00000000	      0.00000000	      0.00000000	     38.20187059	     20.76427239	      0.00000000	     24.80148640	     11.92945186	      9.93036528	     35.96170533	      2.42716325	      9.74660891	      7.65928717	     19.64112796	      6.17124855	      0.00000000	     13.68186346	     14.45843198	      6.27668123	      7.14830883	      6.99267518	      0.00000000	     10.53550046	     11.65156067	     17.36392885	      3.57343828	     13.86240146	      9.69913644	      0.00000000	      0.00000000	     10.29827468	      7.88420333	      0.00000000	      3.71908300	      8.70074300	     13.61315785	     10.32148191	     37.83192705	     30.23989773	      0.00000000	      5.32046675	      0.00000000	     27.15298353	      0.00000000	      0.00000000	      0.00000000	      0.00000000	      0.00000000	     45.73806798	     59.71949875	     10.92152085	      9.95421554	     13.74489621	     10.19329326	     22.34547840	      4.63119967	      7.48827762	      2.31479882	     59.14118859	     59.14118859	     22.73069373	     22.73069373	     39.36055954	     39.36055954	     60.94862368	    304.03800382	     24.83515807	    -17.50509701	      1.47329939	     25.21588553	    -60.94862368	   -304.03800382	    -24.83515807	      9.00883889	     -1.89319380	      0.77545693	     36.08241458	    155.99883567	      3.27361114	      1.88386821	     -0.68969272	     14.39231998	    -36.08241458	   -155.99883567	     -3.27361114	     -2.61476292	      0.54021600	      0.78683159	    -20.33787430	   -529.39023598	     58.48682421	    -10.96483101	      0.71417217	      3.04031974	     20.33787430	    529.39023598	    -58.48682421	     35.15300054	     -0.27526276	      9.34350030	      3.85734181	   -283.45349522	    -57.86635581	      9.45211042	     -0.28167688	      2.02919177	     -3.85734181	    283.45349522	     57.86635581	    -30.67467788	     -0.20715968	     -1.04935238	     67.09492119	     46.29288705	      0.00000000	      0.00000000	      0.00000000	     -4.44952125	    -26.64877104	      0.00000000	      0.00000000	      0.00000000	      0.00000000	      0.00000000	      0.00000001	      0.00000000
      0.08190350	      0.00000000	     13.60418969	     14.40768194	      6.23254538	      7.09949238	      7.02948972	     21.70635457	    234.36524760	    298.07592117	    418.46322321	    139.62107032	     13.76066126	      9.63151568	      0.00000000	      0.00000000	     10.23612030	      4.78484177	      0.00000000	    121.50829761	      8.66753192	     13.51913872	     10.24625517	     37.64184083	     30.02397996	      0.00000000	      5.29216822	      0.00000000	     44.82188791	      0.00000000	      0.00000000	      0.00000000	     35.73844988	     19.21750869	      0.00000000	     23.32531670	     11.77722715	      9.87623236	     34.32731087	      2.44028395	      9.38255772	      6.03467537	     19.59065559	      6.14628102	      0.00000000	     13.60418969	     14.40768194	      6.23254538	      7.09949238	      7.02948972	      0.00000000	     10.45582273	     11.98925871	     17.23935016	      3.54841802	     13.76066126	      9.63151568	      0.00000000	      0.00000000	     10.23612030	      7.84964743	      0.00000000	      3.69263903	      8.66753192	     13.51913872	     10.24625517	     37.64184083	     30.02397996	      0.00000000	      5.29216822	      0.00000000	     27.05819667	      0.00000000	      0.00000000	      0.00000000	      0.00000000	      0.00000000	     46.72164509	     59.69100897	     10.86360727	      9.94939169	     14.13953652	     10.18805972	     22.35442031	      4.60116773	      7.61499050	      2.36438083	     58.72452463	     58.72452463	     22.56187818	     22.56187818	     39.20246297	     39.20246297	     61.61288756	    307.64612889	     25.73899059	    -17.97233730	      1.49455297	     25.48059084	    -61.61288756	   -307.64612889	    -25.73899059	      9.13898625	     -1.92813227	      0.84667537	     34.24393546	    156.96030344	      3.31502884	      1.87246711	     -0.64589487	     13.59936402	    -34.24393546	   -156.96030344	     -3.31502884	     -2.61733237	      0.50197754	      0.90923536	    -19.56009956	   -527.01242015	     57.81722840	    -10.88941732	      0.71350656	      3.20923993	     19.56009956	    527.01242015	    -57.81722840	     34.80951095	     -0.26837654	      8.94057214	      4.22200804	   -279.43818070	    -56.79660725	      9.30698837	     -0.28021893	      2.08742472	     -4.22200804	    279.43818070	     56.79660725	    -30.13616870	     -0.20724580	     -1.23745683	     67.30894339	     45.64897587	      0.00000000	      0.00000000	      0.00000000	     -4.83011760	    -27.58703921	      0.00000000	      0.00000000	      0.00000000	      0.00000000	      0.00000000	      0.00000001	      0.00000000
      0.08281426	      0.00000000	     13.52479372	     14.35201976	      6.18896820	      7.05129366	      7.05714922	     31.69772092	    233.68902494	    295.54727157	    416.39684226	    139.50598049	     13.66022216	      9.56474815	      0.00000000	      0.00000000	     10.17372130	      4.78399017	      0.00000000	    121.29037144	      8.63149126	     13.42565337	     10.17187062	     37.45424138	     29.81087536	      0.00000000	      5.26402199	      0.00000000	     44.63788030	      0.00000000	      0.00000000	      0.00000000	     33.41264236	     17.74198887	      0.00000000	     21.84352279	     11.59651158	      9.76367469	     35.93258231	      2.46496497	      9.07861070	      8.09016410	     19.51351288	      6.12033576	      0.00000000	     13.52479372	     14.35201976	      6.18896820	      7.05129366	      7.05714922	      0.00000000	     10.37716649	     12.29918860	     17.11635908	      3.52371397	     13.66022216	      9.56474815	      0.00000000	      0.00000000	     10.17372130	      7.81492998	      0.00000000	      3.66653098	      8.63149126	     13.42565337	     10.17187062	     37.45424138	     29.81087536	      0.00000000	      5.26402199	      0.00000000	     26.96003192	      0.00000000	      0.00000000	      0.00000000	      0.00000000	      0.53176967	     47.64521173	     59.65969763	     10.79635479	      9.93192250	     14.49567194	     10.18124282	     22.35993698	      4.57128962	      7.74550234	      2.41543450	     58.31313820	     58.31313820	     22.39515198	     22.39515198	     39.04645606	     39.04645606	     61.96432161	    311.00711210	     27.17116561	    -18.66487483	      1.51349198	     25.61682929	    -61.96432161	   -311.00711210	    -27.17116561	      9.29110838	     -1.96475091	      0.92541864	     34.03332326	    159.27010070	      3.47933662	      1.84389307	     -0.63291120	     13.48180321	    -34.03332326	   -159.27010070	     -3.47933662	     -2.64530243	      0.48796141	      0.99244755	    -18.33601363	   -523.90565130	     56.39060414	    -10.76948784	      0.70034019	      3.38941170	     18.33601363	    523.90565130	    -56.39060414	     34.12913019	     -0.25454475	      8.34795977	      4.29716731	   -275.82162783	    -56.43120498	      9.19926735	     -0.29061145	      2.13429302	     -4.29716731	    275.82162783	     56.43120498	    -29.90351757	     -0.20243636	     -1.30100185	     67.75571327	     45.22247828	      0.00000000	      0.00000000	      0.00000000	     -4.50656239	    -27.80659337	      0.00000000	      0.00000000	      0.00000000	      0.00000000	      0.00000000	      0.00000001	      0.00000000
